<?xml version="1.0" encoding="utf-8"?>
<!-- Generator: Adobe Illustrator 19.1.0, SVG Export Plug-In . SVG Version: 6.00 Build 0)  -->
<svg version="1.1" id="Layer_1" xmlns="http://www.w3.org/2000/svg" xmlns:xlink="http://www.w3.org/1999/xlink" x="0px" y="0px"
	 viewBox="0 0 595.3 595.3" style="enable-background:new 0 0 595.3 595.3;" xml:space="preserve">
<style type="text/css">
	.st0{fill:#FFFFFF;}
	.st1{fill:#662E8C;}
	.st2{opacity:0.9;fill:#FFFFFF;}
	.st3{fill:#F59324;}
	.st4{fill:#EC5B25;}
	.st5{fill:none;stroke:#FFFFFF;stroke-width:4.891;stroke-miterlimit:10;}
</style>
<g>
	<path class="st0" d="M270.3,320.6V157.2c0,0,0,0,0-0.1c0-41.7,15.8-79.7,41.7-108.4c-32.8,29.6-53.5,72.5-53.5,120.2
		c0,0.1,0,0.1,0,0v163.5l162.2-1.5c47.5-0.1,90.1-20.6,119.8-53.2c-28.6,25.7-66.5,41.4-108,41.5L270.3,320.6z"/>
	<path class="st1" d="M420.7,330.8l-162.2,1.5V168.9c0,0,0,0,0,0c0-48.2,21.1-91.5,54.6-121.2c-9.7-1-19.5-1.5-29.4-1.5
		C130.2,46.1,5.9,168.5,5.9,319.4c0,150.8,124.2,273.1,277.5,273.3l278.1,2.6V319.5c0,0,0,0,0-0.1c0-20.5-2.3-40.6-6.7-59.8
		C525.7,302.6,476.5,330.8,420.7,330.8z"/>
	<g>
		<g>
			<path class="st0" d="M204,460.2c-17.3,0-30.9-12.9-30.9-29.4v-51.9h8.9v51.9c0,11.7,9.4,20.5,22,20.5c12.5,0,22-8.8,22-20.5
				v-51.9h8.9v51.9C234.9,447.3,221.3,460.2,204,460.2z"/>
		</g>
		<g>
			<path class="st0" d="M450.8,459.3h-8.9v-51.9c0-11.7-9.4-20.5-22-20.5c-12.5,0-22,8.8-22,20.5v51.9H389v-51.9
				c0-16.5,13.6-29.4,30.9-29.4c17.3,0,30.9,12.9,30.9,29.4V459.3z"/>
		</g>
		<g>
			<path class="st0" d="M161.1,459.2h-8.9v-61.5c0-7.3-6.2-13.1-13.9-13.1c-7.7,0-13.9,5.9-13.9,13.1v61.5h-8.9v-61.5
				c0-7.3-6.2-13.1-13.9-13.1c-7.7,0-13.9,5.9-13.9,13.1v61.5h-8.9v-61.5c0-12.1,10.3-22.1,22.9-22.1c7.5,0,14.2,3.5,18.4,9
				c4.2-5.4,10.9-9,18.4-9c12.6,0,22.9,9.9,22.9,22.1V459.2z"/>
		</g>
		<g>
			<path class="st0" d="M495.4,460.3c-20.5,0-34.8-16.8-34.8-40.9c0-24.4,14.3-41.5,34.8-41.5c20.5,0,34.8,17.1,34.8,41.5
				C530.2,443.5,515.9,460.3,495.4,460.3z M495.4,386.8c-17.9,0-25.9,16.4-25.9,32.6c0,15.9,8,32,25.9,32c17.9,0,25.9-16.1,25.9-32
				C521.3,403.2,513.3,386.8,495.4,386.8z"/>
		</g>
		<path class="st0" d="M311.5,459.2L290.1,431c10.5-2.5,17.6-12.6,17.6-25.7c0-15.3-9.6-26.4-22.8-26.4H247v80.3h8.9v-27.5h23.4
			l21,27.5H311.5z M255.9,387.8h29c9.6,0,13.9,8.8,13.9,17.5c0,8.7-4.3,17.4-13.9,17.4h-1.2l-0.1-0.1l-0.1,0.1h-27.7V387.8z"/>
		<path class="st0" d="M377,407.7c-0.4-17.4-12.2-28.6-30-28.6c0,0,0,0-0.1,0h-26.8v8.9h26.8c0,0,0,0,0.1,0
			c13.1,0,20.8,7.3,21.1,19.9c0,0.4,0,9.8,0,20.1H368c0,0-0.9,5.9-4.4,11.6c-4.6,7.6-11.5,11.5-20.5,11.8c-8.5,0.2-14.4-1.1-17.4-4
			c-2.2-2.2-3.3-5.4-3.3-10.2c0-9.5,4.1-13.8,13.1-13.8h26.2v-8.9h-26.2c-14,0-22,8.3-22,22.7c0,7.3,1.9,12.7,6,16.6
			c4.6,4.4,11.7,6.6,21.7,6.6c0.7,0,1.4,0,2.2,0c11.5-0.3,19.5-5.5,24.8-11.8c0,3.7,0,6.2,0,6.2v4.5l8.9,0v-4.5
			C377,433.4,377,408,377,407.7z"/>
	</g>
	<g>
		<path class="st2" d="M386.9,531.8h-2.4c-0.4,0-0.6-0.2-0.6-0.7v-2.8c0-0.5-0.2-0.7-0.5-0.7c-0.2,0-0.5,0.2-0.8,0.5
			c-0.3,0.3-0.7,0.7-1.3,1.2c-0.8,0.7-1.5,1.3-2.3,1.8c-0.8,0.5-2,0.8-3.6,0.8c-1.5,0-3-0.3-4.3-0.8c-1.3-0.5-2.4-1.3-3.4-2.2
			c-1-0.9-1.7-2.1-2.3-3.4c-0.6-1.3-0.8-2.8-0.8-4.4v-7.6c0-1.5,0.3-3,0.8-4.3c0.5-1.3,1.3-2.4,2.2-3.4c0.9-0.9,2-1.7,3.3-2.2
			c1.3-0.6,2.6-0.8,4.1-0.8c0.8,0,1.5,0.1,2.1,0.2c0.6,0.2,1.1,0.3,1.4,0.6c1.2,0.8,2.1,1.5,2.7,2.2c0.6,0.7,1.1,1.1,1.5,1.1
			c0.4,0,0.5-0.2,0.5-0.7v-15c0-0.4,0.2-0.7,0.6-0.7h3.1c0.4,0,0.6,0.2,0.6,0.7v40.1C387.5,531.6,387.3,531.8,386.9,531.8z
			 M383.1,513.4c0-0.9-0.2-1.8-0.6-2.7c-0.4-0.9-0.9-1.6-1.5-2.2c-0.6-0.6-1.4-1.1-2.3-1.5c-0.9-0.4-1.8-0.6-2.8-0.6
			c-1,0-2,0.2-2.8,0.6c-0.9,0.4-1.6,0.9-2.2,1.5c-0.6,0.6-1.1,1.4-1.5,2.2c-0.4,0.9-0.5,1.8-0.5,2.7v7.6c0,1,0.2,1.9,0.5,2.7
			c0.4,0.9,0.8,1.6,1.5,2.2c0.6,0.6,1.4,1.1,2.2,1.5c0.8,0.4,1.8,0.6,2.8,0.6c1,0,1.9-0.2,2.8-0.6c0.9-0.4,1.6-0.9,2.3-1.5
			c0.6-0.6,1.1-1.4,1.5-2.2c0.4-0.9,0.6-1.8,0.6-2.7V513.4z"/>
		<path class="st2" d="M417,517.5h-17.2c-0.4,0-0.7,0.2-0.7,0.7v3.6c0,1,0.2,1.9,0.5,2.7c0.4,0.9,0.8,1.6,1.5,2.2
			c0.6,0.6,1.4,1.1,2.2,1.5c0.8,0.4,1.8,0.6,2.8,0.6c1.6,0,3.1-0.6,4.4-1.8c0.7-0.7,1.2-1.2,1.6-1.6c0.3-0.4,0.6-0.6,0.8-0.6
			c0.1,0,0.2,0,0.3,0.1l2.8,1.4c0.3,0.1,0.4,0.3,0.4,0.5c0,0.5-0.2,1.1-0.7,1.8c-0.5,0.7-1.2,1.3-2.1,1.9c-0.9,0.6-2,1.1-3.2,1.5
			c-1.3,0.4-2.7,0.6-4.2,0.6c-3.5,0-6.3-1-8.4-2.9c-2-2-3.1-4.6-3.1-7.9v-8.9c0-1.2,0.3-2.5,0.8-3.8c0.5-1.3,1.3-2.4,2.3-3.5
			c2.2-2.3,5-3.5,8.3-3.5c1.6,0,3.1,0.3,4.5,0.9c1.4,0.6,2.6,1.4,3.7,2.4c1.1,1,1.9,2.1,2.5,3.4c0.6,1.3,0.9,2.6,0.9,4.1v4
			C417.6,517.2,417.4,517.5,417,517.5z M413.2,512.8c0-0.9-0.2-1.8-0.6-2.7c-0.4-0.9-0.9-1.6-1.5-2.2c-0.6-0.6-1.4-1.1-2.3-1.5
			c-0.9-0.4-1.8-0.6-2.8-0.6c-1,0-2,0.2-2.8,0.6c-0.9,0.4-1.6,0.9-2.2,1.5c-0.6,0.6-1.1,1.4-1.5,2.2c-0.4,0.9-0.5,1.8-0.5,2.7v0.9
			c0,0.4,0.2,0.7,0.7,0.7h12.8c0.4,0,0.7-0.2,0.7-0.7V512.8z"/>
		<path class="st2" d="M429.5,506.7c-1,0.8-1.5,1.8-1.5,3.2c0,1.4,0.5,2.4,1.6,3.1c1.1,0.7,2.7,1.3,5,1.8c1.9,0.4,3.6,0.8,5,1.2
			c1.5,0.4,2.7,0.9,3.7,1.5c1,0.6,1.7,1.3,2.3,2.2c0.5,0.9,0.8,2,0.8,3.4c0,2.8-0.9,5.1-2.8,6.8c-1.9,1.8-4.4,2.6-7.6,2.6h-2
			c-1.5,0-2.9-0.2-4.2-0.6c-1.3-0.4-2.3-0.9-3.2-1.5c-0.9-0.6-1.6-1.2-2-1.9c-0.5-0.7-0.7-1.2-0.7-1.8c0-0.2,0.2-0.3,0.5-0.5
			l2.6-1.3c0.1,0,0.2-0.1,0.3-0.1c0.1,0,0.3,0.1,0.5,0.3c0.4,0.5,0.9,0.9,1.3,1.4c0.4,0.4,0.8,0.8,1.3,1.2c0.5,0.4,1,0.6,1.6,0.8
			c0.6,0.2,1.3,0.3,2.1,0.3h2c1.8,0,3.3-0.5,4.4-1.4c1.1-0.9,1.6-2.1,1.6-3.4c0-2.3-2.2-3.9-6.5-4.8c-1.9-0.4-3.6-0.8-5.1-1.1
			c-1.4-0.4-2.7-0.8-3.7-1.4c-1-0.6-1.8-1.3-2.3-2.2c-0.5-0.9-0.8-2-0.8-3.5c0-2.7,0.9-4.9,2.8-6.6c1.8-1.7,4.3-2.5,7.4-2.5h2
			c1.5,0,2.9,0.2,4.1,0.6c1.2,0.4,2.3,0.9,3.2,1.4c0.9,0.6,1.6,1.2,2.1,1.8c0.5,0.7,0.7,1.2,0.7,1.7c0,0.2-0.2,0.3-0.5,0.5l-2.5,1.3
			c-0.1,0-0.2,0.1-0.3,0.1c-0.1,0-0.3-0.1-0.5-0.3c-0.9-1-1.8-1.9-2.7-2.5c-0.9-0.7-2.1-1-3.6-1h-2
			C431.9,505.5,430.5,505.9,429.5,506.7z"/>
		<path class="st2" d="M459.3,492.5c0,0.8-0.3,1.5-0.9,2.1c-0.6,0.6-1.3,0.9-2.1,0.9c-0.8,0-1.5-0.3-2-0.8c-0.6-0.5-0.8-1.3-0.8-2.1
			c0-0.8,0.3-1.5,0.9-2c0.6-0.6,1.2-0.9,2-0.9c0.9,0,1.6,0.3,2.1,0.8C459.1,491,459.3,491.7,459.3,492.5z M458,531.8h-3.1
			c-0.4,0-0.6-0.2-0.6-0.7v-27.8c0-0.4,0.2-0.7,0.6-0.7h3.1c0.4,0,0.6,0.2,0.6,0.7v27.8C458.6,531.6,458.4,531.8,458,531.8z"/>
		<path class="st2" d="M489.2,533.4c1.6,1.5,2.3,3.3,2.3,5.5c0,1.1-0.2,2.2-0.6,3.1c-0.4,0.9-1,1.8-1.7,2.4
			c-0.7,0.7-1.6,1.2-2.7,1.6c-1,0.4-2.2,0.6-3.4,0.6h-9.3c-1.2,0-2.3-0.2-3.3-0.6c-1-0.4-1.9-0.9-2.6-1.6c-0.7-0.7-1.3-1.5-1.7-2.4
			c-0.4-0.9-0.6-1.9-0.6-3c0-0.9,0.1-1.7,0.4-2.5c0.3-0.8,0.7-1.4,1.2-1.9c0.8-0.8,1.5-1.4,2-1.8c0.5-0.4,0.8-0.7,0.8-0.9
			c0-0.4-0.2-0.9-0.7-1.5c-0.4-0.7-0.7-1.5-0.7-2.5c0-0.7,0.1-1.2,0.3-1.7c0.2-0.5,0.4-0.9,0.6-1.3c0.2-0.4,0.4-0.7,0.6-0.9
			c0.2-0.2,0.3-0.5,0.3-0.6c0-0.1-0.3-0.5-0.9-1.1c-0.6-0.6-1.4-1.6-2.5-2.8c-0.4-0.4-0.7-1.1-1-2c-0.3-0.9-0.4-2-0.4-3.3v-0.7
			c0-1.5,0.3-2.9,0.9-4.2c0.6-1.3,1.3-2.5,2.3-3.4c1-1,2.1-1.7,3.5-2.3c1.3-0.6,2.7-0.8,4.2-0.8c1.6,0,2.8,0.3,3.5,0.8
			c1.2,0.8,2.1,1.5,2.8,2.3c0.6,0.7,1.1,1.1,1.4,1.1c0.3,0,0.5-0.2,0.5-0.7v-2.8c0-0.4,0.2-0.7,0.7-0.7h2.4c0.4,0,0.7,0.2,0.7,0.7
			v10.7c0,1.5-0.3,3-0.9,4.2c-0.6,1.3-1.4,2.4-2.4,3.4c-1,1-2.2,1.8-3.6,2.3c-1.4,0.5-3,0.8-4.7,0.8c-0.4,0-0.7,0-1.1,0
			c-0.4,0-0.7-0.1-1.1-0.1c-1.6,0.8-2.4,1.9-2.4,3.2c0,1.4,0.8,2.5,2.4,3.2h8.3C485.6,531.2,487.6,531.9,489.2,533.4z M484,513.4
			c0-0.9-0.2-1.8-0.6-2.7c-0.4-0.9-0.9-1.6-1.5-2.2c-0.6-0.6-1.4-1.1-2.2-1.5c-0.9-0.4-1.8-0.6-2.8-0.6c-1,0-1.9,0.2-2.8,0.6
			c-0.9,0.4-1.6,0.9-2.2,1.5c-0.6,0.6-1.1,1.4-1.4,2.2c-0.4,0.9-0.5,1.8-0.5,2.7v0.7c0,1,0.2,1.9,0.5,2.7c0.4,0.9,0.8,1.6,1.5,2.2
			c0.6,0.6,1.4,1.1,2.2,1.5c0.8,0.4,1.8,0.6,2.8,0.6c1,0,1.9-0.2,2.8-0.6c0.9-0.4,1.6-0.9,2.2-1.5c0.6-0.6,1.1-1.4,1.5-2.2
			c0.4-0.9,0.6-1.8,0.6-2.7V513.4z M485.9,541.7c0.8-0.8,1.2-1.7,1.2-2.9c0-1.1-0.4-2.1-1.2-2.8c-0.8-0.7-1.7-1.1-2.8-1.1h-9.3
			c-1.1,0-2,0.4-2.8,1.1c-0.7,0.7-1.1,1.7-1.1,2.8c0,1.2,0.4,2.2,1.1,2.9c0.7,0.7,1.7,1.1,2.8,1.1h9.3
			C484.2,542.9,485.2,542.5,485.9,541.7z"/>
		<path class="st2" d="M519,531.8h-3.1c-0.4,0-0.6-0.2-0.6-0.7v-17.7c0-0.9-0.2-1.8-0.6-2.7c-0.4-0.9-0.9-1.6-1.5-2.2
			c-0.6-0.6-1.4-1.1-2.3-1.5c-0.9-0.4-1.8-0.6-2.8-0.6c-1,0-2,0.2-2.8,0.6c-0.9,0.4-1.6,0.9-2.2,1.5c-0.6,0.6-1.1,1.4-1.5,2.2
			c-0.4,0.9-0.5,1.8-0.5,2.7v17.7c0,0.4-0.2,0.7-0.6,0.7h-3.1c-0.4,0-0.6-0.2-0.6-0.7v-27.8c0-0.4,0.2-0.7,0.6-0.7h2.4
			c0.4,0,0.6,0.2,0.6,0.7v2.6c0,0.5,0.2,0.7,0.5,0.7c0.2,0,0.5-0.1,0.8-0.4c0.3-0.3,0.7-0.6,1.2-1.1c0.8-0.6,1.5-1.2,2.3-1.7
			c0.8-0.5,1.9-0.8,3.5-0.8c1.5,0,3,0.3,4.3,0.8c1.3,0.5,2.5,1.3,3.5,2.2c1,0.9,1.8,2.1,2.3,3.4c0.6,1.3,0.9,2.8,0.9,4.3v17.7
			C519.7,531.6,519.5,531.8,519,531.8z"/>
	</g>
	<path class="st3" d="M561.6,252.7c17.5-25.9,27.8-57.1,27.8-90.8c0-89.5-72.5-162-162-162C386.2,0,348.6,15.4,320,40.8
		C439.2,53.2,536,139.8,561.6,252.7z"/>
	<path class="st4" d="M265.4,162C265.4,162.1,265.4,162.1,265.4,162v163.5l162.2-1.5c55.8-0.1,104.9-28.3,134-71.2
		C536,139.8,439.2,53.2,320,40.8C286.5,70.5,265.4,113.8,265.4,162z"/>
	<path class="st5" d="M427.4,0C386.2,0,348.6,15.4,320,40.8c-33.5,29.7-54.5,73-54.5,121.2c0,0.1,0,0.1,0,0.1v163.5l162.2-1.5
		c55.8-0.1,104.9-28.3,134-71.2c17.5-25.9,27.8-57.1,27.8-90.8C589.4,72.5,516.9,0,427.4,0z"/>
</g>
</svg>
