<svg id="Layer_1" data-name="Layer 1" xmlns="http://www.w3.org/2000/svg" viewBox="0 0 944.22 375.42"><defs><style>.cls-1{fill:#ea7207;}.cls-2{fill:#f8b12e;}.cls-3{fill:#652781;}.cls-4{fill:#676767;}</style></defs><title>logoMuranoNovo</title><path id="_Path_" data-name="&lt;Path&gt;" class="cls-1" d="M815.36,235l4-.16c1.34-.07,2.72-0.24,4.08-0.35a103.72,103.72,0,0,0,16-2.93,107.55,107.55,0,0,0,15.05-5.38,102.83,102.83,0,0,0,25.6-16.45A104.51,104.51,0,0,0,898.27,189,107.25,107.25,0,0,0,909,168.1a108.82,108.82,0,0,0,5-17.58,115.11,115.11,0,0,0,1.54-11.74l0.26-4.18v0a106.25,106.25,0,1,0-212.49,0v88.54A17.62,17.62,0,0,1,698.73,235C705.81,235,814,235.07,815.36,235Z"/><path id="_Path_2" data-name="&lt;Path&gt;" class="cls-2" d="M915.79,134.59a119.37,119.37,0,0,1-2.9,20.88,107.38,107.38,0,0,1-9.7,25.32,103.91,103.91,0,0,1-36.67,39A101.4,101.4,0,0,1,815.31,235c-3.82.07-7.66,0-11.48,0H778.46l-31.19,0-28.67,0-17.87,0c-4.85,0-9.73-.2-14.58.1a61.14,61.14,0,0,0-26.32,7.76c-15.62,8.72-26,25.52-27.37,43.26a73.63,73.63,0,0,0,0,7.86c0.81-6.18,2-12.2,4.66-17.89a50.51,50.51,0,0,1,36.49-28.78,56.1,56.1,0,0,1,10.08-.78l18.49,0,27.12,0.06,21.29,0c10.64,0,21.29,0,31.93-.08,4.52,0,9,0,13.55,0,4.33,0,8.65.23,13,.13a110.1,110.1,0,0,0,95.45-60.18,106.88,106.88,0,0,0,11.29-44.81C915.88,139.32,915.82,137,915.79,134.59Z"/><path id="_Path_3" data-name="&lt;Path&gt;" class="cls-3" d="M682,246.5a34.6,34.6,0,0,0-5.25.29,42.25,42.25,0,0,0-5.3.91,41.75,41.75,0,0,0-10.2,3.62A53.74,53.74,0,0,0,644.88,264a50.82,50.82,0,0,0-9.7,17,52.82,52.82,0,0,0-2.11,8.45,33.22,33.22,0,0,0-.58,5.78,53.13,53.13,0,0,0,105.31,8.64c1.08-5.7.92-11.45,0.92-17.21v-29.9c0-2.54.24-4.94,2-7a8.44,8.44,0,0,1,2.89-2.24,8.34,8.34,0,0,1,1.78-.6,17.58,17.58,0,0,0,1.79-.23c-7.41,0-14.82,0-22.24-.05l-34.54-.09c-2.8,0-5.6,0-8.39,0C680.85,246.42,683.06,246.52,682,246.5Z"/><path class="cls-4" d="M166.27,108.49c24.73,0,37.1,12.77,37.1,38.52v65.08c0,2.64-.61,3.65-3.65,3.65h-6.29c-2.64,0-3.65-1-3.65-3.65V147.62c0-17.64-8.31-26.56-25.14-26.56A57.92,57.92,0,0,0,137.07,128c2.63,5.07,3.85,11.35,3.85,19.06v65.08c0,2.64-.61,3.65-3.65,3.65H131c-2.64,0-3.65-1-3.65-3.65V147.62c0-17.64-8.51-26.56-25.75-26.56a54.59,54.59,0,0,0-21.29,4.05c-2.23,1-3.24,2.84-3.24,5.47v81.5q0,3.65-3.65,3.65H66.92q-3.65,0-3.65-3.65V126.53c0-6.29,1.82-8.92,7.7-11.56a79.89,79.89,0,0,1,32.44-6.49c11.35,0,20.07,2.84,26.15,8.72C142.35,111.33,154.71,108.49,166.27,108.49Z"/><path class="cls-4" d="M305.55,111.53q3.65,0,3.65,3.65v85.56c0,6.29-1.42,8.52-7.7,11.15-10.75,4.46-23.52,6.69-37.91,6.69q-40.14,0-40.14-39.54V115.18c0-2.64,1-3.65,3.65-3.65h6.29c3,0,3.65,1,3.65,3.65v63.26c0,18.45,9.53,27.78,28.38,27.78,10.14,0,18.86-1.42,26.36-4.46a5.74,5.74,0,0,0,3.65-5.68V115.18q0-3.65,3.65-3.65h6.49Z"/><path class="cls-4" d="M380.76,108.49q3.65,0,3.65,3.65v5.27q0,3.65-3.65,3.65h-6.69q-15.21,0-26.76,4.26a5.32,5.32,0,0,0-3.45,5.27v81.5q0,3.65-3.65,3.65h-6.49q-3.65,0-3.65-3.65v-86c0-6.28,1.83-8.72,7.7-11.35,10.34-3.85,22.5-6.08,36.7-6.29h6.29Z"/><path class="cls-4" d="M527,108.49c27,0,40.35,13.18,40.35,39.74v63.86q0,3.65-3.65,3.65h-6.29c-2.63,0-3.65-1-3.65-3.65V148.63c0-18.45-9.53-27.57-28.38-27.57a78.4,78.4,0,0,0-27,4.46,5.18,5.18,0,0,0-3,5.07v81.5q0,3.65-3.65,3.65h-6.49q-3.65,0-3.65-3.65V126.53c0-6.29,1.42-8.52,7.71-11.15C500.47,110.72,513,108.49,527,108.49Z"/><path class="cls-4" d="M585,145.8c0-23.32,16.83-37.31,44.4-37.31,27.78,0,44.81,14,44.81,37.31v35.68c0,23.32-17,37.1-44.81,37.1-27.57,0-44.4-14.19-44.4-37.1V145.8Zm75.42,0c0-15.41-11.76-24.94-31-24.94-18.86,0-30.82,9.53-30.82,24.94v35.68c0,15.41,12.17,24.73,30.82,24.73,19.26,0,31-9.33,31-24.73V145.8Z"/><path id="_Compound_Path_" data-name="&lt;Compound Path&gt;" class="cls-4" d="M424.61,108.49q-18.41,0-29.7,8.31a3.2,3.2,0,0,0-.38,4.85l4.7,4.7a3.23,3.23,0,0,0,4.23.25q8-6,20.75-5.94c20.48,0,27.37,10.14,27.37,27.78v9.33a251.84,251.84,0,0,0-26.56-2c-32.24,0-44.6,8.52-44.6,31.43,0,10.75,3,18.65,9.33,23.72,6.29,5.27,17.64,7.7,34.47,7.7,14.4,0,25.55-1.82,33.66-5.27,5.68-2.43,7.3-4.46,7.3-11.56V148.63C465.16,124.1,454.62,108.49,424.61,108.49Zm27,89.61c0,3.85-.61,4.46-3.85,5.88-6.08,2.23-14.19,3.24-24.53,3.24-22.5,0-28.79-6.49-28.79-20.27,0-14,7.91-19.87,29.2-19.87q9.73,0,28,1.82v29.2Z"/></svg>